<svg xmlns="http://www.w3.org/2000/svg" viewBox="0 0 512 512" width="512" height="512" style="width: 100%; height: 100%; transform: translate3d(0px, 0px, 0px);" preserveAspectRatio="xMidYMid meet"><defs><clipPath id="__lottie_element_2977"><rect width="512" height="512" x="0" y="0"></rect></clipPath><clipPath id="__lottie_element_2979"><path d="M0,0 L1080,0 L1080,1080 L0,1080z"></path></clipPath></defs><g clip-path="url(#__lottie_element_2977)"><g clip-path="url(#__lottie_element_2979)" style="display: block;" transform="matrix(0.44999998807907104,0,0,0.44999998807907104,13,13)" opacity="1"><g style="display: block;" transform="matrix(1,0,0,1,-54,28)" opacity="1"><g opacity="1" transform="matrix(1,0,0,1,694,825)"><path fill="rgb(190,236,255)" fill-opacity="1" d=" M-13.649999618530273,-126 C-13.649999618530273,-126 -13.649999618530273,87.2300033569336 -13.649999618530273,87.2300033569336 C-13.649999618530273,87.2300033569336 -64,87.89299774169922 -64,126 C-64,126 64,126 64,126 C64,126 64,-126 64,-126"></path></g></g><g style="display: block;" transform="matrix(1,0,0,1,-54,28)" opacity="1"><g opacity="1" transform="matrix(1,0,0,1,676,848.5)"><path stroke-linecap="round" stroke-linejoin="round" fill-opacity="0" stroke="rgb(0,0,0)" stroke-opacity="1" stroke-width="10" d=" M-13.300000190734863,-115.5 C-13.300000190734863,-115.5 -13.649999618530273,70.96199798583984 -13.649999618530273,70.96199798583984 C-13.649999618530273,70.96199798583984 -64,71.5 -64,102.5 C-64,102.5 64,102.5 64,102.5 C64,102.5 64,-102.5 64,-102.5"></path></g></g><g style="display: block;" transform="matrix(0.9791953563690186,0.2029198706150055,-0.2029198706150055,0.9791953563690186,88.3721923828125,-105.2271728515625)" opacity="1"><g opacity="1" transform="matrix(1,0,0,1,805,516)"><path fill="rgb(190,236,255)" fill-opacity="1" d=" M144.04800415039062,230 C144.04800415039062,230 -144.04800415039062,230 -144.04800415039062,230 C-193.7259979248047,230 -234,189.7270050048828 -234,140.04800415039062 C-234,140.04800415039062 -234,-140.04800415039062 -234,-140.04800415039062 C-234,-189.7270050048828 -193.7259979248047,-230 -144.04800415039062,-230 C-144.04800415039062,-230 144.04800415039062,-230 144.04800415039062,-230 C193.7270050048828,-230 234,-189.7270050048828 234,-140.04800415039062 C234,-140.04800415039062 234,140.04800415039062 234,140.04800415039062 C234,189.7270050048828 193.7270050048828,230 144.04800415039062,230z"></path></g></g><g style="display: block;" transform="matrix(1,0,0,1,-54,28)" opacity="1"><g opacity="1" transform="matrix(1,0,0,1,863,833.5)"><path fill="rgb(190,236,255)" fill-opacity="1" d=" M-13.649999618530273,-117.5 C-13.649999618530273,-117.5 -13.649999618530273,81.34600067138672 -13.649999618530273,81.34600067138672 C-13.649999618530273,81.34600067138672 -64,81.96399688720703 -64,117.5 C-64,117.5 64,117.5 64,117.5 C64,117.5 64,-117.5 64,-117.5"></path></g></g><g style="display: block;" transform="matrix(1,0,0,1,-54,28)" opacity="1"><g opacity="1" transform="matrix(1,0,0,1,843,848.5)"><path stroke-linecap="round" stroke-linejoin="round" fill-opacity="0" stroke="rgb(0,0,0)" stroke-opacity="1" stroke-width="10" d=" M-13.199999809265137,-80.89274597167969 C-13.199999809265137,-80.89274597167969 -13.649999618530273,70.96199798583984 -13.649999618530273,70.96199798583984 C-13.649999618530273,70.96199798583984 -64,71.5 -64,102.5 C-64,102.5 64,102.5 64,102.5 C64,102.5 64,-67.04371643066406 64,-67.04371643066406"></path></g></g><g style="display: block;" transform="matrix(0.9791953563690186,0.2029198706150055,-0.2029198706150055,0.9791953563690186,88.3721923828125,-105.2271728515625)" opacity="1"><g opacity="1" transform="matrix(1,0,0,1,781,512)"><path stroke-linecap="round" stroke-linejoin="round" fill-opacity="0" stroke="rgb(0,0,0)" stroke-opacity="1" stroke-width="10" d=" M138.04800415039062,230 C138.04800415039062,230 -138.04800415039062,230 -138.04800415039062,230 C-187.7259979248047,230 -228,189.7270050048828 -228,140.04800415039062 C-228,140.04800415039062 -228,-140.04800415039062 -228,-140.04800415039062 C-228,-189.7270050048828 -187.7259979248047,-230 -138.04800415039062,-230 C-138.04800415039062,-230 138.04800415039062,-230 138.04800415039062,-230 C187.7270050048828,-230 228,-189.7270050048828 228,-140.04800415039062 C228,-140.04800415039062 228,140.04800415039062 228,140.04800415039062 C228,189.7270050048828 187.7270050048828,230 138.04800415039062,230z"></path></g></g><g style="display: block;" transform="matrix(0.9791953563690186,0.2029198706150055,-0.2029198706150055,0.9791953563690186,128.89913940429688,-123.38116455078125)" opacity="1"><g opacity="1" transform="matrix(1,0,0,1,565.9249877929688,457.80499267578125)"><path fill="rgb(0,0,0)" fill-opacity="1" d=" M13.49899959564209,-0.2199999988079071 C13.619999885559082,7.235000133514404 7.673999786376953,13.37600040435791 0.21899999678134918,13.498000144958496 C-7.236000061035156,13.619000434875488 -13.376999855041504,7.673999786376953 -13.498000144958496,0.21899999678134918 C-13.619000434875488,-7.236000061035156 -7.673999786376953,-13.378000259399414 -0.21899999678134918,-13.49899959564209 C7.236000061035156,-13.619999885559082 13.378000259399414,-7.675000190734863 13.49899959564209,-0.2199999988079071z"></path></g></g><g style="display: block;" transform="matrix(0.9791953563690186,0.2029198706150055,-0.2029198706150055,0.9791953563690186,128.89913940429688,-123.38116455078125)" opacity="1"><g opacity="1" transform="matrix(1,0,0,1,645.3270263671875,514.5469970703125)"><path stroke-linecap="round" stroke-linejoin="round" fill-opacity="0" stroke="rgb(0,0,0)" stroke-opacity="1" stroke-width="10" d=" M-35.4119987487793,-26.952999114990234 C-35.4119987487793,-26.952999114990234 -34.516998291015625,28.040000915527344 -1.5509999990463257,27.503999710083008 C35.4119987487793,26.902999877929688 31.52199935913086,-28.041000366210938 31.52199935913086,-28.041000366210938"></path></g></g><g style="display: block;" transform="matrix(0.9791953563690186,0.2029198706150055,-0.2029198706150055,0.9791953563690186,128.89913940429688,-123.38116455078125)" opacity="1"><g opacity="1" transform="matrix(1,0,0,1,725.9039916992188,455.2040100097656)"><path fill="rgb(0,0,0)" fill-opacity="1" d=" M13.498000144958496,-0.2199999988079071 C13.619000434875488,7.235000133514404 7.673999786376953,13.37600040435791 0.2199999988079071,13.498000144958496 C-7.235000133514404,13.619000434875488 -13.376999855041504,7.673999786376953 -13.498000144958496,0.21899999678134918 C-13.619000434875488,-7.236000061035156 -7.675000190734863,-13.378000259399414 -0.2199999988079071,-13.49899959564209 C7.235000133514404,-13.619999885559082 13.376999855041504,-7.675000190734863 13.498000144958496,-0.2199999988079071z"></path><path fill="rgb(0,0,0)" fill-opacity="1" d=" M13.498000144958496,-0.2199999988079071 C13.619000434875488,7.235000133514404 7.673999786376953,13.37600040435791 0.2199999988079071,13.498000144958496 C-7.235000133514404,13.619000434875488 -13.376999855041504,7.673999786376953 -13.498000144958496,0.21899999678134918 C-13.619000434875488,-7.236000061035156 -7.675000190734863,-13.378000259399414 -0.2199999988079071,-13.49899959564209 C7.235000133514404,-13.619999885559082 13.376999855041504,-7.675000190734863 13.498000144958496,-0.2199999988079071z"></path></g></g><g style="display: block;" transform="matrix(0.9707472324371338,0.24010375142097473,-0.24010375142097473,0.9707472324371338,208.21853637695312,-135.54193115234375)" opacity="1"><g opacity="1" transform="matrix(1,0,0,1,514.1749877929688,598.0469970703125)"><path fill="rgb(190,236,255)" fill-opacity="1" d=" M29.23900032043457,91.39099884033203 C29.23900032043457,91.39099884033203 -66.26200103759766,69.4010009765625 -66.26200103759766,69.4010009765625 C-66.26200103759766,69.4010009765625 -29.23900032043457,-91.39099884033203 -29.23900032043457,-91.39099884033203 C-29.23900032043457,-91.39099884033203 66.26200103759766,-69.4010009765625 66.26200103759766,-69.4010009765625 C66.26200103759766,-69.4010009765625 29.23900032043457,91.39099884033203 29.23900032043457,91.39099884033203z"></path></g></g><g style="display: block;" transform="matrix(0.9707472324371338,0.24010375142097473,-0.24010375142097473,0.9707472324371338,212.19381713867188,-135.987548828125)" opacity="1"><g opacity="1" transform="matrix(1,0,0,1,506.8280029296875,594.302978515625)"><path stroke-linecap="round" stroke-linejoin="round" fill-opacity="0" stroke="rgb(0,0,0)" stroke-opacity="1" stroke-width="10" d=" M29.23900032043457,91.39099884033203 C29.23900032043457,91.39099884033203 -66.26200103759766,69.4010009765625 -66.26200103759766,69.4010009765625 C-66.26200103759766,69.4010009765625 -29.239999771118164,-91.39199829101562 -29.239999771118164,-91.39199829101562 C-29.239999771118164,-91.39199829101562 66.26300048828125,-69.4020004272461 66.26300048828125,-69.4020004272461 C66.26300048828125,-69.4020004272461 29.23900032043457,91.39099884033203 29.23900032043457,91.39099884033203z"></path></g></g><g style="display: block;" transform="matrix(0.9707472324371338,0.24010375142097473,-0.24010375142097473,0.9707472324371338,212.19381713867188,-135.987548828125)" opacity="1"><g opacity="1" transform="matrix(1,0,0,1,648.3259887695312,651.8489990234375)"><path fill="rgb(190,236,255)" fill-opacity="1" d=" M124.77799987792969,-52.367000579833984 C124.77799987792969,-52.367000579833984 -88.54100036621094,-32.28300094604492 -88.54100036621094,-32.28300094604492 C-88.54100036621094,-32.28300094604492 -131.1840057373047,-29.27199935913086 -127.33999633789062,11.54699993133545 C-123.49700164794922,52.367000579833984 -82.322998046875,47.48699951171875 -82.322998046875,47.48699951171875 C-82.322998046875,47.48699951171875 131.1840057373047,29.391000747680664 131.1840057373047,29.391000747680664"></path></g></g><g style="display: block;" transform="matrix(0.9707472324371338,0.24010375142097473,-0.24010375142097473,0.9707472324371338,212.19381713867188,-135.987548828125)" opacity="1"><g opacity="1" transform="matrix(1,0,0,1,642.7310180664062,650.7420043945312)"><path stroke-linecap="round" stroke-linejoin="round" fill-opacity="0" stroke="rgb(0,0,0)" stroke-opacity="1" stroke-width="10" d=" M124.77899932861328,-52.367000579833984 C124.77899932861328,-52.367000579833984 -88.54100036621094,-32.28099822998047 -88.54100036621094,-32.28099822998047 C-88.54100036621094,-32.28099822998047 -131.1840057373047,-29.270000457763672 -127.34100341796875,11.548999786376953 C-123.49700164794922,52.36800003051758 -82.3239974975586,47.48699951171875 -82.3239974975586,47.48699951171875 C-82.3239974975586,47.48699951171875 131.18299865722656,29.39299964904785 131.18299865722656,29.39299964904785"></path></g></g><g style="display: block;" transform="matrix(0.9707472324371338,0.24010375142097473,-0.24010375142097473,0.9707472324371338,212.19381713867188,-135.987548828125)" opacity="1"><g opacity="1" transform="matrix(1,0,0,1,452.27398681640625,648.7689819335938)"><path fill="rgb(190,236,255)" fill-opacity="1" d=" M-10.62399959564209,42.63399887084961 C-10.62399959564209,42.63399887084961 13.746000289916992,38.957000732421875 13.746000289916992,38.957000732421875 C13.746000289916992,38.957000732421875 56.20500183105469,33.979000091552734 50.47999954223633,-6.619999885559082 C44.755001068115234,-47.21799850463867 3.8499999046325684,-40.43899917602539 3.8499999046325684,-40.43899917602539 C3.8499999046325684,-40.43899917602539 -20.989999771118164,-37.672000885009766 -20.989999771118164,-37.672000885009766 C-20.989999771118164,-37.672000885009766 -56.20500183105469,-32.073001861572266 -50.89099884033203,7.572000026702881 C-45.577999114990234,47.21799850463867 -10.62399959564209,42.63399887084961 -10.62399959564209,42.63399887084961z"></path></g></g><g style="display: block;" transform="matrix(0.9707472324371338,0.24010375142097473,-0.24010375142097473,0.9707472324371338,212.19381713867188,-135.987548828125)" opacity="1"><g opacity="1" transform="matrix(1,0,0,1,440.27398681640625,649.7689819335938)"><path stroke-linecap="round" stroke-linejoin="round" fill-opacity="0" stroke="rgb(0,0,0)" stroke-opacity="1" stroke-width="10" d=" M-10.62399959564209,42.63399887084961 C-10.62399959564209,42.63399887084961 13.746000289916992,38.957000732421875 13.746000289916992,38.957000732421875 C13.746000289916992,38.957000732421875 56.20500183105469,33.979000091552734 50.47999954223633,-6.619999885559082 C44.755001068115234,-47.21799850463867 3.8499999046325684,-40.43899917602539 3.8499999046325684,-40.43899917602539 C3.8499999046325684,-40.43899917602539 -20.989999771118164,-37.672000885009766 -20.989999771118164,-37.672000885009766 C-20.989999771118164,-37.672000885009766 -56.20500183105469,-32.073001861572266 -50.89099884033203,7.572000026702881 C-45.577999114990234,47.21799850463867 -10.62399959564209,42.63399887084961 -10.62399959564209,42.63399887084961z"></path></g></g><g style="display: block;" transform="matrix(1,0,0,1,0,0)" opacity="1"><g opacity="1" transform="matrix(1,0,0,1,394.0679931640625,314.7550048828125)"><path stroke-linecap="round" stroke-linejoin="round" fill-opacity="0" stroke="rgb(0,0,0)" stroke-opacity="1" stroke-width="10" d=" M-73.0469970703125,-56.88800048828125 C-73.0469970703125,-56.88800048828125 73.0479965209961,56.88800048828125 73.0479965209961,56.88800048828125 C73.0479965209961,56.88800048828125 65.33999633789062,-56.88800048828125 65.33999633789062,-56.88800048828125"></path></g><g opacity="1" transform="matrix(1,0,0,1,424,173.4340057373047)"><path stroke-linecap="round" stroke-linejoin="round" fill-opacity="0" stroke="rgb(0,0,0)" stroke-opacity="1" stroke-width="10" d=" M-104.27799987792969,84.43399810791016 C-104.27799987792969,84.43399810791016 -334.27801513671875,84.43399810791016 -334.27801513671875,84.43399810791016 C-373.8890075683594,84.43399810791016 -406,52.32400131225586 -406,12.713000297546387 C-406,12.713000297546387 -406,-12.711999893188477 -406,-12.711999893188477 C-406,-52.321998596191406 -373.8890075683594,-84.43399810791016 -334.27801513671875,-84.43399810791016 C-334.27801513671875,-84.43399810791016 334.2799987792969,-84.43399810791016 334.2799987792969,-84.43399810791016 C373.8900146484375,-84.43399810791016 406,-52.321998596191406 406,-12.711999893188477 C406,-12.711999893188477 406,12.713000297546387 406,12.713000297546387 C406,52.32400131225586 373.8900146484375,84.43399810791016 334.2799987792969,84.43399810791016 C334.2799987792969,84.43399810791016 37.12699890136719,84.43399810791016 37.12699890136719,84.43399810791016"></path></g></g><g style="display: block;" transform="matrix(1,0,0,1,0,0)" opacity="1"><g opacity="1" transform="matrix(1,0,0,1,116.36299896240234,171.45199584960938)"><path fill="rgb(190,236,255)" fill-opacity="1" d=" M-16.014999389648438,-18.45199966430664 C-16.014999389648438,-18.45199966430664 -0.6970000267028809,-47 -0.6970000267028809,-47 C-0.6970000267028809,-47 15.317999839782715,-18.45199966430664 15.317999839782715,-18.45199966430664 C15.317999839782715,-18.45199966430664 55.00699996948242,-18.45199966430664 55.00699996948242,-18.45199966430664 C55.00699996948242,-18.45199966430664 24.3700008392334,10.793000221252441 24.3700008392334,10.793000221252441 C24.3700008392334,10.793000221252441 37.599998474121094,47 37.599998474121094,47 C37.599998474121094,47 0.0010000000474974513,28.895999908447266 0.0010000000474974513,28.895999908447266 C0.0010000000474974513,28.895999908447266 -36.90399932861328,47 -36.90399932861328,47 C-36.90399932861328,47 -25.76300048828125,11.48900032043457 -25.76300048828125,11.48900032043457 C-25.76300048828125,11.48900032043457 -55.007999420166016,-14.970999717712402 -55.007999420166016,-14.970999717712402 C-55.007999420166016,-14.970999717712402 -16.014999389648438,-18.45199966430664 -16.014999389648438,-18.45199966430664z"></path></g></g><g style="display: block;" transform="matrix(1,0,0,1,0,0)" opacity="1"><g opacity="1" transform="matrix(1,0,0,1,108.00700378417969,171.45199584960938)"><path stroke-linecap="round" stroke-linejoin="round" fill-opacity="0" stroke="rgb(0,0,0)" stroke-opacity="1" stroke-width="10" d=" M-16.013999938964844,-18.45199966430664 C-16.013999938964844,-18.45199966430664 -0.6970000267028809,-47 -0.6970000267028809,-47 C-0.6970000267028809,-47 15.319000244140625,-18.45199966430664 15.319000244140625,-18.45199966430664 C15.319000244140625,-18.45199966430664 55.007999420166016,-18.45199966430664 55.007999420166016,-18.45199966430664 C55.007999420166016,-18.45199966430664 24.3700008392334,10.793000221252441 24.3700008392334,10.793000221252441 C24.3700008392334,10.793000221252441 37.60100173950195,47 37.60100173950195,47 C37.60100173950195,47 0.0010000000474974513,28.895999908447266 0.0010000000474974513,28.895999908447266 C0.0010000000474974513,28.895999908447266 -36.90399932861328,47 -36.90399932861328,47 C-36.90399932861328,47 -25.761999130249023,11.48900032043457 -25.761999130249023,11.48900032043457 C-25.761999130249023,11.48900032043457 -55.00699996948242,-14.970999717712402 -55.00699996948242,-14.970999717712402 C-55.00699996948242,-14.970999717712402 -16.013999938964844,-18.45199966430664 -16.013999938964844,-18.45199966430664z"></path></g></g><g style="display: block;" transform="matrix(1,0,0,1,0,0)" opacity="1"><g opacity="1" transform="matrix(1,0,0,1,250.36300659179688,168.45199584960938)"><path fill="rgb(190,236,255)" fill-opacity="1" d=" M-16.013999938964844,-18.45199966430664 C-16.013999938964844,-18.45199966430664 -0.6959999799728394,-47 -0.6959999799728394,-47 C-0.6959999799728394,-47 15.319000244140625,-18.45199966430664 15.319000244140625,-18.45199966430664 C15.319000244140625,-18.45199966430664 55.007999420166016,-18.45199966430664 55.007999420166016,-18.45199966430664 C55.007999420166016,-18.45199966430664 24.371000289916992,10.793000221252441 24.371000289916992,10.793000221252441 C24.371000289916992,10.793000221252441 37.599998474121094,47 37.599998474121094,47 C37.599998474121094,47 0.0010000000474974513,28.895999908447266 0.0010000000474974513,28.895999908447266 C0.0010000000474974513,28.895999908447266 -36.90299987792969,47 -36.90299987792969,47 C-36.90299987792969,47 -25.761999130249023,11.48900032043457 -25.761999130249023,11.48900032043457 C-25.761999130249023,11.48900032043457 -55.00699996948242,-14.970999717712402 -55.00699996948242,-14.970999717712402 C-55.00699996948242,-14.970999717712402 -16.013999938964844,-18.45199966430664 -16.013999938964844,-18.45199966430664z"></path></g></g><g style="display: block;" transform="matrix(1,0,0,1,0,0)" opacity="1"><g opacity="1" transform="matrix(1,0,0,1,242.0070037841797,168.45199584960938)"><path stroke-linecap="round" stroke-linejoin="round" fill-opacity="0" stroke="rgb(0,0,0)" stroke-opacity="1" stroke-width="10" d=" M-16.013999938964844,-18.45199966430664 C-16.013999938964844,-18.45199966430664 -0.6970000267028809,-47 -0.6970000267028809,-47 C-0.6970000267028809,-47 15.317999839782715,-18.45199966430664 15.317999839782715,-18.45199966430664 C15.317999839782715,-18.45199966430664 55.007999420166016,-18.45199966430664 55.007999420166016,-18.45199966430664 C55.007999420166016,-18.45199966430664 24.3700008392334,10.793000221252441 24.3700008392334,10.793000221252441 C24.3700008392334,10.793000221252441 37.599998474121094,47 37.599998474121094,47 C37.599998474121094,47 0.0010000000474974513,28.895999908447266 0.0010000000474974513,28.895999908447266 C0.0010000000474974513,28.895999908447266 -36.90399932861328,47 -36.90399932861328,47 C-36.90399932861328,47 -25.761999130249023,11.48900032043457 -25.761999130249023,11.48900032043457 C-25.761999130249023,11.48900032043457 -55.007999420166016,-14.970999717712402 -55.007999420166016,-14.970999717712402 C-55.007999420166016,-14.970999717712402 -16.013999938964844,-18.45199966430664 -16.013999938964844,-18.45199966430664z"></path></g></g><g style="display: block;" transform="matrix(1,0,0,1,0,0)" opacity="1"><g opacity="1" transform="matrix(1,0,0,1,408.3630065917969,167.45199584960938)"><path fill="rgb(190,236,255)" fill-opacity="1" d=" M-16.013999938964844,-18.45199966430664 C-16.013999938964844,-18.45199966430664 -0.6970000267028809,-47 -0.6970000267028809,-47 C-0.6970000267028809,-47 15.317999839782715,-18.45199966430664 15.317999839782715,-18.45199966430664 C15.317999839782715,-18.45199966430664 55.007999420166016,-18.45199966430664 55.007999420166016,-18.45199966430664 C55.007999420166016,-18.45199966430664 24.3700008392334,10.793000221252441 24.3700008392334,10.793000221252441 C24.3700008392334,10.793000221252441 37.599998474121094,47 37.599998474121094,47 C37.599998474121094,47 0,28.895999908447266 0,28.895999908447266 C0,28.895999908447266 -36.90399932861328,47 -36.90399932861328,47 C-36.90399932861328,47 -25.76300048828125,11.48900032043457 -25.76300048828125,11.48900032043457 C-25.76300048828125,11.48900032043457 -55.007999420166016,-14.970999717712402 -55.007999420166016,-14.970999717712402 C-55.007999420166016,-14.970999717712402 -16.013999938964844,-18.45199966430664 -16.013999938964844,-18.45199966430664z"></path></g></g><g style="display: block;" transform="matrix(1,0,0,1,0,0)" opacity="1"><g opacity="1" transform="matrix(1,0,0,1,400.0069885253906,167.45199584960938)"><path stroke-linecap="round" stroke-linejoin="round" fill-opacity="0" stroke="rgb(0,0,0)" stroke-opacity="1" stroke-width="10" d=" M-16.013999938964844,-18.45199966430664 C-16.013999938964844,-18.45199966430664 -0.6970000267028809,-47 -0.6970000267028809,-47 C-0.6970000267028809,-47 15.317999839782715,-18.45199966430664 15.317999839782715,-18.45199966430664 C15.317999839782715,-18.45199966430664 55.007999420166016,-18.45199966430664 55.007999420166016,-18.45199966430664 C55.007999420166016,-18.45199966430664 24.3700008392334,10.793000221252441 24.3700008392334,10.793000221252441 C24.3700008392334,10.793000221252441 37.599998474121094,47 37.599998474121094,47 C37.599998474121094,47 0,28.895999908447266 0,28.895999908447266 C0,28.895999908447266 -36.90399932861328,47 -36.90399932861328,47 C-36.90399932861328,47 -25.76300048828125,11.48900032043457 -25.76300048828125,11.48900032043457 C-25.76300048828125,11.48900032043457 -55.007999420166016,-14.970999717712402 -55.007999420166016,-14.970999717712402 C-55.007999420166016,-14.970999717712402 -16.013999938964844,-18.45199966430664 -16.013999938964844,-18.45199966430664z"></path></g></g><g style="display: block;" transform="matrix(1,0,0,1,0,0)" opacity="1"><g opacity="1" transform="matrix(1,0,0,1,570.3629760742188,168.45199584960938)"><path fill="rgb(190,236,255)" fill-opacity="1" d=" M-16.013999938964844,-18.45199966430664 C-16.013999938964844,-18.45199966430664 -0.6959999799728394,-47 -0.6959999799728394,-47 C-0.6959999799728394,-47 15.319000244140625,-18.45199966430664 15.319000244140625,-18.45199966430664 C15.319000244140625,-18.45199966430664 55.00699996948242,-18.45199966430664 55.00699996948242,-18.45199966430664 C55.00699996948242,-18.45199966430664 24.371000289916992,10.793000221252441 24.371000289916992,10.793000221252441 C24.371000289916992,10.793000221252441 37.599998474121094,47 37.599998474121094,47 C37.599998474121094,47 0.0010000000474974513,28.895999908447266 0.0010000000474974513,28.895999908447266 C0.0010000000474974513,28.895999908447266 -36.90299987792969,47 -36.90299987792969,47 C-36.90299987792969,47 -25.76300048828125,11.48900032043457 -25.76300048828125,11.48900032043457 C-25.76300048828125,11.48900032043457 -55.00699996948242,-14.970999717712402 -55.00699996948242,-14.970999717712402 C-55.00699996948242,-14.970999717712402 -16.013999938964844,-18.45199966430664 -16.013999938964844,-18.45199966430664z"></path><path fill="rgb(190,236,255)" fill-opacity="1" d=" M-16.013999938964844,-18.45199966430664 C-16.013999938964844,-18.45199966430664 -0.6959999799728394,-47 -0.6959999799728394,-47 C-0.6959999799728394,-47 15.319000244140625,-18.45199966430664 15.319000244140625,-18.45199966430664 C15.319000244140625,-18.45199966430664 55.00699996948242,-18.45199966430664 55.00699996948242,-18.45199966430664 C55.00699996948242,-18.45199966430664 24.371000289916992,10.793000221252441 24.371000289916992,10.793000221252441 C24.371000289916992,10.793000221252441 37.599998474121094,47 37.599998474121094,47 C37.599998474121094,47 0.0010000000474974513,28.895999908447266 0.0010000000474974513,28.895999908447266 C0.0010000000474974513,28.895999908447266 -36.90299987792969,47 -36.90299987792969,47 C-36.90299987792969,47 -25.76300048828125,11.48900032043457 -25.76300048828125,11.48900032043457 C-25.76300048828125,11.48900032043457 -55.00699996948242,-14.970999717712402 -55.00699996948242,-14.970999717712402 C-55.00699996948242,-14.970999717712402 -16.013999938964844,-18.45199966430664 -16.013999938964844,-18.45199966430664z"></path></g></g><g style="display: block;" transform="matrix(1,0,0,1,0,0)" opacity="1"><g opacity="1" transform="matrix(1,0,0,1,562.0070190429688,168.45199584960938)"><path stroke-linecap="round" stroke-linejoin="round" fill-opacity="0" stroke="rgb(0,0,0)" stroke-opacity="1" stroke-width="10" d=" M-16.014999389648438,-18.45199966430664 C-16.014999389648438,-18.45199966430664 -0.6959999799728394,-47 -0.6959999799728394,-47 C-0.6959999799728394,-47 15.319000244140625,-18.45199966430664 15.319000244140625,-18.45199966430664 C15.319000244140625,-18.45199966430664 55.00699996948242,-18.45199966430664 55.00699996948242,-18.45199966430664 C55.00699996948242,-18.45199966430664 24.371000289916992,10.793000221252441 24.371000289916992,10.793000221252441 C24.371000289916992,10.793000221252441 37.599998474121094,47 37.599998474121094,47 C37.599998474121094,47 0.0010000000474974513,28.895999908447266 0.0010000000474974513,28.895999908447266 C0.0010000000474974513,28.895999908447266 -36.90399932861328,47 -36.90399932861328,47 C-36.90399932861328,47 -25.76300048828125,11.48900032043457 -25.76300048828125,11.48900032043457 C-25.76300048828125,11.48900032043457 -55.00699996948242,-14.970999717712402 -55.00699996948242,-14.970999717712402 C-55.00699996948242,-14.970999717712402 -16.014999389648438,-18.45199966430664 -16.014999389648438,-18.45199966430664z"></path></g></g><g style="display: block;" transform="matrix(1,0,0,1,0,0)" opacity="1"><g opacity="1" transform="matrix(1,0,0,1,730.3629760742188,167.45199584960938)"><path fill="rgb(190,236,255)" fill-opacity="1" d=" M-16.013999938964844,-18.45199966430664 C-16.013999938964844,-18.45199966430664 -0.6959999799728394,-47 -0.6959999799728394,-47 C-0.6959999799728394,-47 15.319000244140625,-18.45199966430664 15.319000244140625,-18.45199966430664 C15.319000244140625,-18.45199966430664 55.00699996948242,-18.45199966430664 55.00699996948242,-18.45199966430664 C55.00699996948242,-18.45199966430664 24.371000289916992,10.793000221252441 24.371000289916992,10.793000221252441 C24.371000289916992,10.793000221252441 37.599998474121094,47 37.599998474121094,47 C37.599998474121094,47 0.0010000000474974513,28.895999908447266 0.0010000000474974513,28.895999908447266 C0.0010000000474974513,28.895999908447266 -36.90399932861328,47 -36.90399932861328,47 C-36.90399932861328,47 -25.76300048828125,11.48900032043457 -25.76300048828125,11.48900032043457 C-25.76300048828125,11.48900032043457 -55.00699996948242,-14.970999717712402 -55.00699996948242,-14.970999717712402 C-55.00699996948242,-14.970999717712402 -16.013999938964844,-18.45199966430664 -16.013999938964844,-18.45199966430664z"></path><path fill="rgb(190,236,255)" fill-opacity="1" d=" M-16.013999938964844,-18.45199966430664 C-16.013999938964844,-18.45199966430664 -0.6959999799728394,-47 -0.6959999799728394,-47 C-0.6959999799728394,-47 15.319000244140625,-18.45199966430664 15.319000244140625,-18.45199966430664 C15.319000244140625,-18.45199966430664 55.00699996948242,-18.45199966430664 55.00699996948242,-18.45199966430664 C55.00699996948242,-18.45199966430664 24.371000289916992,10.793000221252441 24.371000289916992,10.793000221252441 C24.371000289916992,10.793000221252441 37.599998474121094,47 37.599998474121094,47 C37.599998474121094,47 0.0010000000474974513,28.895999908447266 0.0010000000474974513,28.895999908447266 C0.0010000000474974513,28.895999908447266 -36.90399932861328,47 -36.90399932861328,47 C-36.90399932861328,47 -25.76300048828125,11.48900032043457 -25.76300048828125,11.48900032043457 C-25.76300048828125,11.48900032043457 -55.00699996948242,-14.970999717712402 -55.00699996948242,-14.970999717712402 C-55.00699996948242,-14.970999717712402 -16.013999938964844,-18.45199966430664 -16.013999938964844,-18.45199966430664z"></path></g></g><g style="display: block;" transform="matrix(1,0,0,1,0,0)" opacity="1"><g opacity="1" transform="matrix(1,0,0,1,722.0070190429688,167.45199584960938)"><path stroke-linecap="round" stroke-linejoin="round" fill-opacity="0" stroke="rgb(0,0,0)" stroke-opacity="1" stroke-width="10" d=" M-16.014999389648438,-18.45199966430664 C-16.014999389648438,-18.45199966430664 -0.6959999799728394,-47 -0.6959999799728394,-47 C-0.6959999799728394,-47 15.319000244140625,-18.45199966430664 15.319000244140625,-18.45199966430664 C15.319000244140625,-18.45199966430664 55.00699996948242,-18.45199966430664 55.00699996948242,-18.45199966430664 C55.00699996948242,-18.45199966430664 24.371000289916992,10.793000221252441 24.371000289916992,10.793000221252441 C24.371000289916992,10.793000221252441 37.599998474121094,47 37.599998474121094,47 C37.599998474121094,47 0.0010000000474974513,28.895999908447266 0.0010000000474974513,28.895999908447266 C0.0010000000474974513,28.895999908447266 -36.90399932861328,47 -36.90399932861328,47 C-36.90399932861328,47 -25.76300048828125,11.48900032043457 -25.76300048828125,11.48900032043457 C-25.76300048828125,11.48900032043457 -55.00699996948242,-14.970999717712402 -55.00699996948242,-14.970999717712402 C-55.00699996948242,-14.970999717712402 -16.014999389648438,-18.45199966430664 -16.014999389648438,-18.45199966430664z"></path></g></g></g></g></svg>